Coordinates
version=1
nRows=65
nColumns=12
inDegrees=yes

Units are S.I. units (second, meters, Newtons, ...)
Angles are in degrees

endheader
time	SC_y	SC_z	SC_x	AC_y	AC_z	AC_x	GH_y	GH_z	GH_yy	EL_x	PS_y
       0.0              -23.53          13.96           55.4           57.1         -16.26         -18.06          158.8          9.598          140.2           73.5          5.645
  0.002209              -23.53          13.96           55.4           57.1         -16.25         -18.06          158.8          9.609          140.2          73.49          5.646
  0.004419              -23.53          13.96           55.4           57.1         -16.25         -18.06          158.8           9.62          140.2          73.49          5.646
  0.006628              -23.53          13.96           55.4          57.09         -16.25         -18.07          158.8          9.632          140.2          73.48          5.647
  0.008837              -23.52          13.95           55.4          57.09         -16.25         -18.07          158.8          9.645          140.2          73.47          5.648
   0.01105              -23.52          13.95           55.4          57.09         -16.25         -18.07          158.7          9.659          140.2          73.46          5.649
   0.01326              -23.52          13.95           55.4          57.09         -16.25         -18.07          158.7          9.674          140.2          73.46           5.65
   0.01547              -23.52          13.95           55.4          57.09         -16.24         -18.07          158.7           9.69          140.2          73.45          5.651
   0.01767              -23.51          13.95           55.4          57.08         -16.24         -18.07          158.7          9.707          140.2          73.44          5.652
   0.01988              -23.51          13.95          55.39          57.08         -16.24         -18.07          158.7          9.725          140.1          73.43          5.653
   0.02209              -23.51          13.95          55.39          57.08         -16.24         -18.07          158.6          9.744          140.1          73.41          5.654
    0.0243               -23.5          13.95          55.39          57.08         -16.23         -18.07          158.6          9.765          140.1           73.4          5.656
   0.02651               -23.5          13.94          55.39          57.07         -16.23         -18.07          158.6          9.788          140.1          73.39          5.657
   0.02872               -23.5          13.94          55.39          57.07         -16.23         -18.07          158.6          9.812          140.1          73.37          5.659
   0.03093              -23.49          13.94          55.39          57.07         -16.22         -18.07          158.5          9.839          140.1          73.36          5.661
   0.03314              -23.49          13.94          55.39          57.06         -16.22         -18.07          158.5          9.867          140.1          73.34          5.662
   0.03535              -23.48          13.94          55.38          57.06         -16.22         -18.07          158.5          9.899          140.1          73.32          5.664
   0.03756              -23.48          13.93          55.38          57.05         -16.21         -18.07          158.4          9.933          140.0           73.3          5.667
   0.03977              -23.47          13.93          55.38          57.05         -16.21         -18.07          158.4           9.97          140.0          73.28          5.669
   0.04198              -23.46          13.93          55.38          57.04          -16.2         -18.07          158.3          10.01          140.0          73.26          5.672
   0.04419              -23.46          13.92          55.38          57.04         -16.19         -18.07          158.3          10.05          140.0          73.23          5.675
    0.0464              -23.45          13.92          55.37          57.03         -16.19         -18.08          158.2           10.1          139.9           73.2          5.678
   0.04861              -23.44          13.92          55.37          57.02         -16.18         -18.08          158.2          10.16          139.9          73.17          5.681
   0.05081              -23.43          13.91          55.37          57.01         -16.17         -18.08          158.1          10.22          139.9          73.13          5.685
   0.05302              -23.42          13.91          55.36           57.0         -16.16         -18.08          158.0          10.28          139.8          73.09           5.69
   0.05523              -23.41           13.9          55.36          56.99         -16.15         -18.08          157.9          10.36          139.8          73.05          5.694
   0.05744              -23.39          13.89          55.35          56.98         -16.14         -18.08          157.8          10.44          139.8           73.0            5.7
   0.05965              -23.38          13.89          55.35          56.97         -16.13         -18.09          157.7          10.54          139.7          72.95          5.706
   0.06186              -23.36          13.88          55.34          56.96         -16.11         -18.09          157.6          10.64          139.6          72.88          5.713
   0.06407              -23.34          13.87          55.33          56.94          -16.1         -18.09          157.5          10.76          139.6          72.81          5.721
   0.06628              -23.32          13.86          55.32          56.92         -16.08         -18.09          157.3           10.9          139.5          72.73           5.73
   0.06849               -23.3          13.85          55.31           56.9         -16.06          -18.1          157.1          11.06          139.4          72.64           5.74
    0.0707              -23.27          13.83           55.3          56.87         -16.03          -18.1          156.9          11.24          139.3          72.53          5.752
   0.07291              -23.23          13.82          55.29          56.84          -16.0         -18.11          156.7          11.45          139.2           72.4          5.766
   0.07512              -23.19           13.8          55.28          56.81         -15.97         -18.11          156.4           11.7          139.1          72.26          5.782
   0.07733              -23.15          13.77          55.26          56.77         -15.93         -18.12          156.1          11.99          138.9          72.08          5.801
   0.07954              -23.09          13.75          55.24          56.72         -15.88         -18.12          155.7          12.34          138.7          71.88          5.823
   0.08174              -23.02          13.72          55.21          56.67         -15.83         -18.13          155.2          12.75          138.5          71.63           5.85
   0.08395              -22.94          13.68          55.18           56.6         -15.76         -18.15          154.6          13.26          138.2          71.33          5.883
   0.08616              -22.84          13.63          55.15          56.51         -15.67         -18.16          153.9          13.87          137.9          70.97          5.923
   0.08837              -22.72          13.57           55.1          56.41         -15.57         -18.18          153.0          14.63          137.4          70.52          5.972
   0.09058              -22.57           13.5          55.04          56.28         -15.44          -18.2          151.9          15.57          136.9          69.96          6.034
   0.09279              -22.38          13.41          54.97          56.12         -15.28         -18.22          150.6          16.77          136.3          69.26          6.112
     0.095              -22.13          13.29          54.88          55.91         -15.07         -18.26          148.8          18.28          135.4          68.36           6.21
   0.09721              -21.82          13.14          54.76          55.65         -14.81          -18.3          146.6          20.22          134.4          67.21          6.336
   0.09942              -21.42          12.95          54.61          55.31         -14.47         -18.35          143.7          22.71          133.0          65.74          6.498
    0.1016              -20.91          12.71          54.42          54.87         -14.03         -18.42          140.1          25.88          131.2          63.86          6.705
    0.1038              -20.27           12.4          54.18          54.33         -13.49         -18.51          135.5          29.88          129.0          61.49          6.966
     0.106              -19.49          12.03          53.89          53.66         -12.82         -18.62          129.9          34.74          126.4          58.61          7.283
    0.1083              -18.58           11.6          53.55          52.89         -12.05         -18.75          123.4          40.39          123.3          55.27           7.65
    0.1105               -17.6          11.13          53.19          52.06         -11.22         -18.88          116.3           46.5          119.9          51.65          8.048
    0.1127              -16.61          10.66          52.82          51.22         -10.38         -19.02          109.3          52.61          116.5          48.03          8.446
    0.1149              -15.71          10.23          52.48          50.45         -9.614         -19.14          102.8          58.25          113.4          44.69          8.813
    0.1171              -14.92          9.857          52.19          49.79         -8.949         -19.25          97.18          63.12          110.7           41.8           9.13
    0.1193              -14.28          9.551          51.95          49.24         -8.404         -19.34          92.58          67.11          108.5          39.44          9.391
    0.1215              -13.77          9.307          51.76          48.81          -7.97         -19.41          88.92          70.29          106.8          37.56          9.597
    0.1237              -13.37          9.117          51.61          48.47          -7.63         -19.46          86.06          72.78          105.4          36.08          9.759
    0.1259              -13.06          8.968          51.49           48.2         -7.366          -19.5          83.83          74.71          104.3          34.94          9.886
    0.1281              -12.81          8.852           51.4           48.0         -7.159         -19.54          82.08          76.23          103.5          34.04          9.984
    0.1303              -12.62          8.761          51.33          47.83         -6.996         -19.56          80.71          77.42          102.8          33.33          10.06
    0.1326              -12.47          8.688          51.27           47.7         -6.867         -19.58          79.62          78.36          102.3          32.77          10.12
    0.1348              -12.35           8.63          51.23           47.6         -6.764          -19.6          78.75          79.12          101.9          32.32          10.17
     0.137              -12.25          8.583          51.19          47.52          -6.68         -19.61          78.04          79.74          101.6          31.96          10.21
    0.1392              -12.17          8.545          51.16          47.45         -6.611         -19.63          77.46          80.24          101.3          31.66          10.25
    0.1414               -12.1          8.513          51.13          47.39         -6.555         -19.64          76.98          80.66          101.1          31.42          10.27
